<svg data-testid="settings-svg" width="14" height="14" viewBox="0 0 14 14" fill="none" xmlns="http://www.w3.org/2000/svg">
<path d="M7 1.4C6.6134 1.4 6.3 1.7134 6.3 2.1C6.3 3.28458 4.86779 3.87782 4.03017 3.0402C3.7568 2.76683 3.31359 2.76683 3.04022 3.0402C2.76685 3.31356 2.76685 3.75678 3.04022 4.03014C3.87788 4.8678 3.28456 6.3 2.1 6.3C1.7134 6.3 1.4 6.6134 1.4 7C1.4 7.3866 1.7134 7.7 2.1 7.7C3.28465 7.7 3.87775 9.13228 3.04017 9.96985C2.76681 10.2432 2.76681 10.6864 3.04017 10.9598C3.31354 11.2332 3.75676 11.2332 4.03012 10.9598C4.86773 10.1222 6.3 10.7154 6.3 11.9C6.3 12.2866 6.6134 12.6 7 12.6C7.3866 12.6 7.7 12.2866 7.7 11.9C7.7 10.7154 9.13223 10.1222 9.96987 10.9598C10.2432 11.2332 10.6864 11.2332 10.9598 10.9598C11.2332 10.6864 11.2332 10.2432 10.9598 9.96984C10.1222 9.13224 10.7154 7.7 11.9 7.7C12.2866 7.7 12.6 7.3866 12.6 7C12.6 6.6134 12.2866 6.3 11.9 6.3C10.7155 6.3 10.1221 4.86784 10.9598 4.03016C11.2331 3.75679 11.2331 3.31357 10.9598 3.04021C10.6864 2.76684 10.2432 2.76684 9.96982 3.04021C9.13217 3.87785 7.7 3.28454 7.7 2.1C7.7 1.7134 7.3866 1.4 7 1.4ZM4.90571 1.94392C4.98557 0.857011 5.8927 0 7 0C8.1073 0 9.01443 0.857011 9.09429 1.94392C9.91931 1.23184 11.1667 1.26728 11.9497 2.05026C12.7327 2.83324 12.7681 4.08068 12.056 4.90571C13.143 4.98554 14 5.89269 14 7C14 8.1073 13.143 9.01443 12.0561 9.09429C12.7682 9.91931 12.7327 11.1668 11.9498 11.9497C11.1668 12.7327 9.91932 12.7682 9.09429 12.056C9.01445 13.143 8.10731 14 7 14C5.89269 14 4.98555 13.143 4.90571 12.056C4.08068 12.7682 2.83322 12.7327 2.05022 11.9498C1.26724 11.1668 1.2318 9.91931 1.94392 9.09429C0.857009 9.01443 0 8.1073 0 7C0 5.89269 0.857033 4.98554 1.94396 4.90571C1.23185 4.08068 1.26728 2.83323 2.05027 2.05025C2.83325 1.26727 4.08069 1.23183 4.90571 1.94392Z" fill="#28CAC0"/>
<path d="M7 5.6C6.6287 5.6 6.2726 5.7475 6.01005 6.01005C5.7475 6.2726 5.6 6.6287 5.6 7C5.6 7.3713 5.7475 7.7274 6.01005 7.98995C6.2726 8.2525 6.6287 8.4 7 8.4C7.3713 8.4 7.7274 8.2525 7.98995 7.98995C8.2525 7.7274 8.4 7.3713 8.4 7C8.4 6.6287 8.2525 6.2726 7.98995 6.01005C7.7274 5.7475 7.3713 5.6 7 5.6ZM5.0201 5.0201C5.5452 4.495 6.25739 4.2 7 4.2C7.74261 4.2 8.4548 4.495 8.9799 5.0201C9.505 5.5452 9.8 6.25739 9.8 7C9.8 7.74261 9.505 8.4548 8.9799 8.9799C8.4548 9.505 7.74261 9.8 7 9.8C6.25739 9.8 5.5452 9.505 5.0201 8.9799C4.495 8.4548 4.2 7.74261 4.2 7C4.2 6.25739 4.495 5.5452 5.0201 5.0201Z" fill="#28CAC0"/>
</svg>
