<svg data-testid="trash-svg" width="24" height="24" viewBox="0 0 24 24" fill="none" xmlns="http://www.w3.org/2000/svg"><path d="M6 2.4C6 1.07452 7.07452 0 8.4 0H15.6C16.9255 0 18 1.07452 18 2.4V4.8H20.3876C20.395 4.79993 20.4025 4.79993 20.4099 4.8H22.8C23.4627 4.8 24 5.33726 24 6C24 6.66274 23.4627 7.2 22.8 7.2H21.5173L20.4766 21.771C20.3868 23.0269 19.3418 24 18.0827 24H5.91734C4.65821 24 3.61315 23.0269 3.52344 21.771L2.48266 7.2H1.2C0.537258 7.2 0 6.66274 0 6C0 5.33726 0.537258 4.8 1.2 4.8H3.59009C3.59754 4.79993 3.60497 4.79993 3.61239 4.8H6V2.4ZM8.4 4.8H15.6V2.4H8.4V4.8ZM4.88877 7.2L5.91734 21.6H18.0827L19.1112 7.2H4.88877Z" fill="#28CAC0"/></svg>